<svg width="159" height="110" viewBox="0 0 159 110" fill="none" xmlns="http://www.w3.org/2000/svg">
<path d="M3.16807 102.14H2.05007L1.79007 95.848H3.50607L3.16807 102.14ZM1.86807 105V103.453H3.41507V105H1.86807ZM13.29 103.414C13.3333 103.414 13.3723 103.436 13.407 103.479C13.4503 103.514 13.472 103.557 13.472 103.609V104.818C13.472 104.87 13.4547 104.913 13.42 104.948C13.394 104.983 13.3507 105 13.29 105H13.043C12.705 105 12.3843 104.909 12.081 104.727C11.7777 104.545 11.5393 104.307 11.366 104.012C11.236 104.324 11.028 104.567 10.742 104.74C10.4647 104.913 10.1527 105 9.806 105H8.09C7.79533 105 7.518 104.926 7.258 104.779C7.00666 104.623 6.803 104.419 6.647 104.168C6.49966 103.908 6.426 103.626 6.426 103.323V101.672H7.557V103.024C7.557 103.137 7.58733 103.232 7.648 103.31C7.71733 103.379 7.80833 103.414 7.921 103.414H9.819C10.0617 103.414 10.2697 103.336 10.443 103.18C10.6163 103.015 10.703 102.82 10.703 102.595C10.703 102.5 10.6943 102.426 10.677 102.374L9.65 98.669L10.937 98.214L12.211 102.764C12.263 102.963 12.3497 103.124 12.471 103.245C12.601 103.358 12.7527 103.414 12.926 103.414H13.29ZM13.2886 105C13.2366 105 13.1932 104.983 13.1586 104.948C13.1239 104.913 13.1066 104.87 13.1066 104.818V103.622C13.1066 103.57 13.1239 103.522 13.1586 103.479C13.1932 103.436 13.2366 103.414 13.2886 103.414H15.3556C15.5462 103.414 15.7066 103.349 15.8366 103.219C15.9666 103.089 16.0316 102.929 16.0316 102.738V100.086H17.3706V102.725C17.3706 103.141 17.2709 103.522 17.0716 103.869C16.8722 104.216 16.5992 104.493 16.2526 104.701C15.9059 104.9 15.5246 105 15.1086 105H13.2886ZM15.7066 106.56H17.1366V107.99H15.7066V106.56ZM13.6006 106.56H15.0306V107.99H13.6006V106.56ZM18.7909 96.147H20.1429V105H18.7909V96.147ZM25.4102 105.143C24.9508 105.143 24.5392 105.03 24.1752 104.805C23.8112 104.571 23.5295 104.268 23.3302 103.895C23.1308 103.522 23.0312 103.132 23.0312 102.725V102.322C23.0312 101.932 23.1178 101.581 23.2912 101.269C23.4732 100.957 23.6985 100.723 23.9672 100.567C24.0798 100.489 24.2228 100.398 24.3962 100.294L23.5252 99.709L24.2532 98.591C24.5392 98.7643 25.5185 99.4143 27.1912 100.541C27.5032 100.74 27.7328 100.996 27.8802 101.308C28.0362 101.611 28.1142 101.936 28.1142 102.283V102.725C28.1142 103.141 28.0145 103.535 27.8152 103.908C27.6158 104.272 27.3298 104.571 26.9572 104.805C26.5932 105.03 26.1685 105.143 25.6832 105.143H25.4102ZM25.8782 103.596C26.1382 103.596 26.3505 103.509 26.5152 103.336C26.6798 103.154 26.7622 102.963 26.7622 102.764V102.205C26.7622 102.11 26.7362 102.014 26.6842 101.919C26.6408 101.815 26.5672 101.728 26.4632 101.659L25.4882 101.048L24.6562 101.672C24.5695 101.733 24.5002 101.802 24.4482 101.88C24.4048 101.958 24.3832 102.058 24.3832 102.179V102.738C24.3832 102.955 24.4655 103.154 24.6302 103.336C24.8035 103.509 25.0115 103.596 25.2542 103.596H25.8782ZM31.2212 105C30.9178 105 30.6362 104.926 30.3762 104.779C30.1248 104.623 29.9212 104.419 29.7652 104.168C29.6178 103.908 29.5442 103.626 29.5442 103.323V101.685H30.6882V103.05C30.6882 103.154 30.7185 103.241 30.7792 103.31C30.8485 103.379 30.9352 103.414 31.0392 103.414H33.1582C33.4268 103.414 33.6392 103.332 33.7952 103.167C33.9512 103.002 34.0292 102.799 34.0292 102.556C34.0292 102.374 33.9858 102.209 33.8992 102.062L32.3392 99.267L33.4832 98.539L35.1212 101.464C35.3292 101.828 35.4332 102.227 35.4332 102.66C35.4332 103.067 35.3335 103.453 35.1342 103.817C34.9435 104.172 34.6705 104.458 34.3152 104.675C33.9685 104.892 33.5785 105 33.1452 105H31.2212ZM36.831 96.147H38.183V105H36.831V96.147ZM46.5009 103.414C46.5443 103.414 46.5833 103.436 46.6179 103.479C46.6613 103.514 46.6829 103.557 46.6829 103.609V104.818C46.6829 104.87 46.6656 104.913 46.6309 104.948C46.6049 104.983 46.5616 105 46.5009 105H46.2539C45.9159 105 45.5953 104.909 45.2919 104.727C44.9886 104.545 44.7503 104.307 44.5769 104.012C44.4469 104.324 44.2389 104.567 43.9529 104.74C43.6756 104.913 43.3636 105 43.0169 105H41.3009C41.0063 105 40.7289 104.926 40.4689 104.779C40.2176 104.623 40.0139 104.419 39.8579 104.168C39.7106 103.908 39.6369 103.626 39.6369 103.323V101.672H40.7679V103.024C40.7679 103.137 40.7983 103.232 40.8589 103.31C40.9283 103.379 41.0193 103.414 41.1319 103.414H43.0299C43.2726 103.414 43.4806 103.336 43.6539 103.18C43.8273 103.015 43.9139 102.82 43.9139 102.595C43.9139 102.5 43.9053 102.426 43.8879 102.374L42.8609 98.669L44.1479 98.214L45.4219 102.764C45.4739 102.963 45.5606 103.124 45.6819 103.245C45.8119 103.358 45.9636 103.414 46.1369 103.414H46.5009ZM46.4995 105C46.4475 105 46.4042 104.983 46.3695 104.948C46.3348 104.913 46.3175 104.87 46.3175 104.818V103.609C46.3175 103.557 46.3348 103.514 46.3695 103.479C46.4042 103.436 46.4475 103.414 46.4995 103.414H48.0335C48.2328 103.414 48.3932 103.349 48.5145 103.219C48.6445 103.089 48.7095 102.924 48.7095 102.725V100.086H50.0615V102.712C50.0615 103.128 49.9575 103.514 49.7495 103.869C49.5502 104.216 49.2772 104.493 48.9305 104.701C48.5838 104.9 48.2068 105 47.7995 105H46.4995ZM48.6185 97.473H50.0485L50.0355 98.903H48.6185V97.473ZM52.9286 102.14C52.9286 101.724 53.0283 101.343 53.2276 100.996C53.4356 100.641 53.713 100.363 54.0596 100.164C54.415 99.956 54.7963 99.852 55.2036 99.852H58.2456C58.627 99.852 58.978 99.9473 59.2986 100.138C59.6193 100.32 59.8706 100.571 60.0526 100.892C60.2433 101.213 60.3386 101.559 60.3386 101.932V103.492C60.3386 103.917 60.1913 104.276 59.8966 104.571C59.602 104.857 59.2423 105 58.8176 105H57.2966C56.9326 105 56.599 104.909 56.2956 104.727C56.001 104.545 55.7626 104.302 55.5806 103.999C55.4073 103.687 55.3206 103.353 55.3206 102.998C55.3206 102.868 55.3336 102.747 55.3596 102.634L55.5806 101.373H54.9436C54.7616 101.373 54.6013 101.442 54.4626 101.581C54.324 101.72 54.2546 101.884 54.2546 102.075V108.263H52.9286V102.14ZM58.9996 103.427V101.919C58.9996 101.772 58.9433 101.646 58.8306 101.542C58.718 101.429 58.588 101.373 58.4406 101.373H56.9716L56.6726 102.881C56.6466 103.028 56.677 103.158 56.7636 103.271C56.859 103.375 56.9846 103.427 57.1406 103.427H58.9996ZM63.9752 105C63.5678 105 63.1908 104.9 62.8442 104.701C62.5062 104.502 62.2375 104.233 62.0382 103.895C61.8388 103.548 61.7392 103.171 61.7392 102.764V96.147H63.0912V102.738C63.0912 102.929 63.1518 103.089 63.2732 103.219C63.4032 103.349 63.5635 103.414 63.7542 103.414H64.4042C64.4562 103.414 64.4995 103.436 64.5342 103.479C64.5688 103.514 64.5862 103.557 64.5862 103.609V104.818C64.5862 104.939 64.5255 105 64.4042 105H63.9752ZM64.3999 105C64.2786 105 64.2179 104.939 64.2179 104.818V103.609C64.2179 103.566 64.2396 103.522 64.2829 103.479C64.3176 103.436 64.3566 103.414 64.3999 103.414H66.7269C67.1602 103.414 67.5372 103.362 67.8579 103.258C68.1872 103.154 68.4906 102.95 68.7679 102.647L69.4959 101.867C69.6779 101.711 69.7732 101.629 69.7819 101.62L66.9479 100.788C66.9219 100.779 66.8829 100.775 66.8309 100.775C66.6489 100.775 66.5319 100.862 66.4799 101.035L66.0509 102.257L64.8809 101.958L65.2189 100.788C65.3402 100.389 65.5656 100.073 65.8949 99.839C66.2242 99.605 66.5839 99.488 66.9739 99.488C67.1472 99.488 67.3162 99.514 67.4809 99.566L72.6289 101.1L72.2389 102.361L71.5759 102.153C71.4632 102.118 71.3592 102.101 71.2639 102.101C71.1166 102.101 70.9649 102.162 70.8089 102.283V102.764C70.8089 102.946 70.8696 103.102 70.9909 103.232C71.1209 103.353 71.2726 103.414 71.4459 103.414H73.3049C73.4262 103.414 73.4869 103.475 73.4869 103.596V104.818C73.4869 104.939 73.4262 105 73.3049 105H71.8229C71.3636 105 70.9606 104.874 70.6139 104.623C70.2672 104.363 70.0202 104.029 69.8729 103.622L69.8339 103.375L69.2099 103.947C68.8806 104.311 68.4732 104.58 67.9879 104.753C67.5112 104.918 66.9912 105 66.4279 105H64.3999ZM67.9619 106.547H69.3919L69.4049 107.99H67.9619V106.547ZM73.2993 105C73.2473 105 73.204 104.983 73.1693 104.948C73.1346 104.913 73.1173 104.87 73.1173 104.818V103.609C73.1173 103.557 73.1346 103.514 73.1693 103.479C73.204 103.436 73.2473 103.414 73.2993 103.414H74.8333C75.0326 103.414 75.193 103.349 75.3143 103.219C75.4443 103.089 75.5093 102.924 75.5093 102.725V100.086H76.8613V102.712C76.8613 103.128 76.7573 103.514 76.5493 103.869C76.35 104.216 76.077 104.493 75.7303 104.701C75.3836 104.9 75.0066 105 74.5993 105H73.2993ZM75.4183 97.473H76.8483L76.8353 98.903H75.4183V97.473ZM78.2812 96.147H79.6332V105H78.2812V96.147ZM89.4894 102.998C89.8274 103.085 90.0961 103.254 90.2954 103.505C90.4947 103.756 90.5944 104.051 90.5944 104.389V104.792C90.5944 105.269 90.4774 105.706 90.2434 106.105C90.0094 106.504 89.6931 106.82 89.2944 107.054C88.9044 107.297 88.4711 107.418 87.9944 107.418H85.3814C84.8614 107.418 84.3804 107.288 83.9384 107.028C83.5051 106.768 83.1584 106.417 82.8984 105.975C82.6471 105.542 82.5214 105.065 82.5214 104.545V101.568H83.8734V104.35C83.8734 104.757 84.0164 105.104 84.3024 105.39C84.5884 105.685 84.9351 105.832 85.3424 105.832H88.1764C88.4884 105.832 88.7441 105.719 88.9434 105.494C89.1514 105.277 89.2554 105.009 89.2554 104.688V104.324L85.6284 103.466V101.971C85.6284 101.529 85.7281 101.117 85.9274 100.736C86.1267 100.355 86.3997 100.043 86.7464 99.8C87.1017 99.5487 87.4917 99.397 87.9164 99.345L89.6974 99.111L89.8664 100.489L87.8904 100.762C87.6131 100.797 87.3834 100.922 87.2014 101.139C87.0194 101.347 86.9284 101.59 86.9284 101.867V102.4L89.4894 102.998ZM92.1064 96.147H93.4584V105H92.1064V96.147ZM101.963 105C101.564 105 101.2 104.9 100.871 104.701C100.55 104.493 100.303 104.203 100.13 103.83C99.8263 103.96 99.5186 104.025 99.2066 104.025H97.9456C97.4949 104.025 97.1179 103.873 96.8146 103.57C96.5113 103.267 96.3596 102.894 96.3596 102.452V101.62C96.3596 101.083 96.5199 100.602 96.8406 100.177C97.1699 99.7523 97.5859 99.4837 98.0886 99.371L99.8046 98.968V97.967H101.157V102.66C101.157 102.868 101.23 103.046 101.378 103.193C101.525 103.34 101.72 103.414 101.963 103.414H102.353C102.474 103.414 102.535 103.475 102.535 103.596V104.818C102.535 104.879 102.517 104.926 102.483 104.961C102.448 104.987 102.405 105 102.353 105H101.963ZM99.8176 102.439V100.398L98.4526 100.736C97.9586 100.849 97.7116 101.174 97.7116 101.711V102.439H99.8176ZM102.359 105C102.238 105 102.177 104.939 102.177 104.818V103.596C102.177 103.475 102.238 103.414 102.359 103.414H103.23C103.421 103.414 103.581 103.349 103.711 103.219C103.841 103.089 103.906 102.933 103.906 102.751V96.147H105.258V102.725C105.258 102.916 105.323 103.08 105.453 103.219C105.583 103.349 105.743 103.414 105.934 103.414H106.766C106.818 103.414 106.861 103.431 106.896 103.466C106.931 103.492 106.948 103.535 106.948 103.596V104.818C106.948 104.87 106.926 104.913 106.883 104.948C106.848 104.983 106.809 105 106.766 105H106.168C105.527 105 105.002 104.74 104.595 104.22C104.179 104.74 103.646 105 102.996 105H102.359ZM106.764 105C106.712 105 106.669 104.983 106.634 104.948C106.599 104.913 106.582 104.87 106.582 104.818V103.596C106.582 103.544 106.599 103.501 106.634 103.466C106.66 103.431 106.703 103.414 106.764 103.414H107.18C107.371 103.414 107.535 103.362 107.674 103.258C107.813 103.154 107.899 103.002 107.934 102.803L108.194 101.464C108.281 101.005 108.506 100.623 108.87 100.32C109.243 100.017 109.663 99.865 110.131 99.865H110.859C111.232 99.865 111.578 99.9603 111.899 100.151C112.22 100.333 112.471 100.584 112.653 100.905C112.844 101.217 112.939 101.564 112.939 101.945V103.492C112.939 103.917 112.792 104.276 112.497 104.571C112.202 104.857 111.843 105 111.418 105H109.91C109.303 105 108.844 104.744 108.532 104.233C108.203 104.744 107.722 105 107.089 105H106.764ZM111.587 103.414V101.932C111.587 101.776 111.535 101.646 111.431 101.542C111.327 101.429 111.197 101.373 111.041 101.373H110.027C109.897 101.373 109.78 101.416 109.676 101.503C109.581 101.59 109.52 101.698 109.494 101.828L109.273 102.881C109.247 103.02 109.277 103.145 109.364 103.258C109.459 103.362 109.581 103.414 109.728 103.414H111.587ZM116.597 105C116.19 105 115.813 104.9 115.466 104.701C115.128 104.502 114.86 104.233 114.66 103.895C114.461 103.548 114.361 103.171 114.361 102.764V96.147H115.713V102.738C115.713 102.929 115.774 103.089 115.895 103.219C116.025 103.349 116.186 103.414 116.376 103.414H117.026C117.078 103.414 117.122 103.436 117.156 103.479C117.191 103.514 117.208 103.557 117.208 103.609V104.818C117.208 104.939 117.148 105 117.026 105H116.597ZM117.022 105C116.97 105 116.927 104.983 116.892 104.948C116.857 104.905 116.84 104.857 116.84 104.805V103.609C116.84 103.557 116.857 103.514 116.892 103.479C116.927 103.436 116.97 103.414 117.022 103.414H118.27C118.504 103.414 118.872 103.392 119.375 103.349L118.062 102.478V100.697C118.062 100.281 118.179 99.956 118.413 99.722C118.656 99.4793 118.981 99.358 119.388 99.358H121.858C122.222 99.358 122.556 99.449 122.859 99.631C123.162 99.8043 123.401 100.043 123.574 100.346C123.747 100.641 123.834 100.966 123.834 101.321V101.659C123.834 101.902 123.778 102.131 123.665 102.348C123.561 102.556 123.409 102.734 123.21 102.881L122.521 103.349C122.729 103.366 122.868 103.375 122.937 103.375C123.188 103.401 123.422 103.414 123.639 103.414H124.64C124.761 103.414 124.822 103.479 124.822 103.609V104.805C124.822 104.857 124.805 104.905 124.77 104.948C124.735 104.983 124.692 105 124.64 105H123.301C122.911 105 122.504 104.935 122.079 104.805C121.663 104.666 121.273 104.493 120.909 104.285C120.545 104.493 120.155 104.666 119.739 104.805C119.323 104.935 118.916 105 118.517 105H117.022ZM122.56 101.776V101.451C122.56 101.286 122.508 101.152 122.404 101.048C122.3 100.935 122.157 100.879 121.975 100.879H119.31V101.646C119.96 102.079 120.51 102.435 120.961 102.712L122.56 101.776ZM124.639 105C124.587 105 124.544 104.983 124.509 104.948C124.474 104.913 124.457 104.87 124.457 104.818V103.596C124.457 103.544 124.474 103.501 124.509 103.466C124.535 103.431 124.578 103.414 124.639 103.414H125.055C125.246 103.414 125.41 103.362 125.549 103.258C125.688 103.154 125.774 103.002 125.809 102.803L126.069 101.464C126.156 101.005 126.381 100.623 126.745 100.32C127.118 100.017 127.538 99.865 128.006 99.865H128.734C129.107 99.865 129.453 99.9603 129.774 100.151C130.095 100.333 130.346 100.584 130.528 100.905C130.719 101.217 130.814 101.564 130.814 101.945V103.492C130.814 103.917 130.667 104.276 130.372 104.571C130.077 104.857 129.718 105 129.293 105H127.785C127.178 105 126.719 104.744 126.407 104.233C126.078 104.744 125.597 105 124.964 105H124.639ZM129.462 103.414V101.932C129.462 101.776 129.41 101.646 129.306 101.542C129.202 101.429 129.072 101.373 128.916 101.373H127.902C127.772 101.373 127.655 101.416 127.551 101.503C127.456 101.59 127.395 101.698 127.369 101.828L127.148 102.881C127.122 103.02 127.152 103.145 127.239 103.258C127.334 103.362 127.456 103.414 127.603 103.414H129.462ZM132.397 107.028L134.191 106.456C134.546 106.335 134.823 106.14 135.023 105.871C135.231 105.611 135.335 105.286 135.335 104.896V100.463H136.687V104.766C136.687 105.459 136.492 106.066 136.102 106.586C135.72 107.115 135.209 107.492 134.568 107.717L132.813 108.315L132.397 107.028ZM135.27 97.785H136.7L136.687 99.215H135.27V97.785ZM144.092 103.414C144.144 103.414 144.187 103.431 144.222 103.466C144.257 103.501 144.274 103.544 144.274 103.596V104.818C144.274 104.939 144.213 105 144.092 105H142.935V103.414H144.092ZM141.791 104.883C141.609 104.961 141.267 105 140.764 105H140.127C139.763 105 139.429 104.909 139.126 104.727C138.823 104.545 138.584 104.302 138.411 103.999C138.238 103.687 138.151 103.358 138.151 103.011C138.151 102.881 138.164 102.76 138.19 102.647L138.398 101.49C138.485 101.022 138.71 100.636 139.074 100.333C139.447 100.021 139.867 99.865 140.335 99.865H141.076C141.457 99.865 141.804 99.9603 142.116 100.151C142.437 100.333 142.688 100.584 142.87 100.905C143.061 101.217 143.156 101.559 143.156 101.932V104.753C143.156 105.438 142.961 106.049 142.571 106.586C142.19 107.132 141.678 107.513 141.037 107.73L139.295 108.315L138.892 107.054L140.673 106.443C141.028 106.322 141.301 106.131 141.492 105.871C141.691 105.611 141.791 105.338 141.791 105.052V104.883ZM141.804 101.932C141.804 101.785 141.748 101.659 141.635 101.555C141.531 101.442 141.401 101.386 141.245 101.386H140.192C139.923 101.386 139.759 101.533 139.698 101.828L139.503 102.881C139.477 103.02 139.507 103.145 139.594 103.258C139.689 103.362 139.811 103.414 139.958 103.414H141.804V101.932ZM144.088 105C144.036 105 143.993 104.987 143.958 104.961C143.924 104.926 143.906 104.879 143.906 104.818V103.609C143.906 103.557 143.928 103.514 143.971 103.479C144.006 103.436 144.045 103.414 144.088 103.414H145.167C145.375 103.414 145.54 103.358 145.661 103.245C145.791 103.132 145.878 102.981 145.921 102.79L146.402 100.476L147.715 100.723L147.338 102.66C147.33 102.695 147.325 102.747 147.325 102.816C147.325 102.989 147.382 103.132 147.494 103.245C147.616 103.358 147.772 103.414 147.962 103.414H148.911C148.963 103.414 149.007 103.436 149.041 103.479C149.076 103.514 149.093 103.557 149.093 103.609V104.818C149.093 104.87 149.076 104.913 149.041 104.948C149.015 104.983 148.972 105 148.911 105H147.949C147.646 105 147.369 104.935 147.117 104.805C146.875 104.666 146.688 104.471 146.558 104.22C146.42 104.463 146.207 104.653 145.921 104.792C145.644 104.931 145.358 105 145.063 105H144.088ZM146.025 97.824H147.455L147.442 99.254H146.025V97.824ZM154.269 104.415C154.035 104.623 153.827 104.775 153.645 104.87C153.471 104.957 153.211 105 152.865 105H148.913C148.861 105 148.817 104.987 148.783 104.961C148.748 104.926 148.731 104.883 148.731 104.831V103.596C148.731 103.535 148.748 103.492 148.783 103.466C148.817 103.431 148.861 103.414 148.913 103.414H150.187C150.048 103.31 149.979 103.115 149.979 102.829C149.979 102.708 149.992 102.578 150.018 102.439L150.187 101.62C150.282 101.152 150.512 100.766 150.876 100.463C151.24 100.16 151.656 100.012 152.124 100.021L152.644 100.034C153.016 100.034 153.359 100.129 153.671 100.32C153.983 100.502 154.23 100.749 154.412 101.061C154.594 101.364 154.685 101.702 154.685 102.075V103.414H156.583V101.867C156.583 101.668 156.526 101.494 156.414 101.347C156.301 101.2 156.154 101.096 155.972 101.035L151.37 99.592L151.799 98.24L156.206 99.605C156.708 99.7523 157.12 100.043 157.441 100.476C157.77 100.901 157.935 101.382 157.935 101.919V103.427C157.935 103.869 157.779 104.242 157.467 104.545C157.163 104.848 156.786 105 156.336 105H154.269V104.415ZM153.385 101.854C153.385 101.707 153.333 101.581 153.229 101.477C153.133 101.373 153.008 101.321 152.852 101.321H152.033C151.738 101.321 151.56 101.468 151.5 101.763L151.292 102.946C151.266 103.111 151.296 103.245 151.383 103.349C151.478 103.453 151.599 103.505 151.747 103.505H153.385V101.854Z" fill="white"/>
<circle cx="79.8438" cy="54" r="24.75" fill="#363636" stroke="white" stroke-width="1.5"/>
<path d="M63.8438 45.75L69.8437 51.75" stroke="white" stroke-width="2" stroke-linecap="round"/>
<path d="M69.8438 45.75L63.8438 51.75" stroke="white" stroke-width="2" stroke-linecap="round"/>
<path d="M89.8438 45.75L95.8437 51.75" stroke="white" stroke-width="2" stroke-linecap="round"/>
<path d="M95.8438 45.75L89.8438 51.75" stroke="white" stroke-width="2" stroke-linecap="round"/>
<path d="M67.3438 64.001C71.6771 60.8344 82.2438 56.401 89.8438 64.001" stroke="white" stroke-width="2" stroke-linecap="round"/>
<g filter="url(#filter0_d_516_3992)">
<path d="M107.844 22L109.456 24.3878L111.844 26L109.456 27.6122L107.844 30L106.232 27.6122L103.844 26L106.232 24.3878L107.844 22Z" fill="white"/>
</g>
<g filter="url(#filter1_d_516_3992)">
<path d="M114.844 16L116.053 17.7908L117.844 19L116.053 20.2092L114.844 22L113.635 20.2092L111.844 19L113.635 17.7908L114.844 16Z" fill="white"/>
</g>
<g filter="url(#filter2_d_516_3992)">
<path d="M109.844 12L110.65 13.1939L111.844 14L110.65 14.8061L109.844 16L109.038 14.8061L107.844 14L109.038 13.1939L109.844 12Z" fill="white"/>
</g>
<defs>
<filter id="filter0_d_516_3992" x="91.8438" y="10" width="32" height="32" filterUnits="userSpaceOnUse" color-interpolation-filters="sRGB">
<feFlood flood-opacity="0" result="BackgroundImageFix"/>
<feColorMatrix in="SourceAlpha" type="matrix" values="0 0 0 0 0 0 0 0 0 0 0 0 0 0 0 0 0 0 127 0" result="hardAlpha"/>
<feOffset/>
<feGaussianBlur stdDeviation="6"/>
<feComposite in2="hardAlpha" operator="out"/>
<feColorMatrix type="matrix" values="0 0 0 0 0.0588235 0 0 0 0 0.713726 0 0 0 0 0.580392 0 0 0 0.24 0"/>
<feBlend mode="normal" in2="BackgroundImageFix" result="effect1_dropShadow_516_3992"/>
<feBlend mode="normal" in="SourceGraphic" in2="effect1_dropShadow_516_3992" result="shape"/>
</filter>
<filter id="filter1_d_516_3992" x="99.8438" y="4" width="30" height="30" filterUnits="userSpaceOnUse" color-interpolation-filters="sRGB">
<feFlood flood-opacity="0" result="BackgroundImageFix"/>
<feColorMatrix in="SourceAlpha" type="matrix" values="0 0 0 0 0 0 0 0 0 0 0 0 0 0 0 0 0 0 127 0" result="hardAlpha"/>
<feOffset/>
<feGaussianBlur stdDeviation="6"/>
<feComposite in2="hardAlpha" operator="out"/>
<feColorMatrix type="matrix" values="0 0 0 0 0.0588235 0 0 0 0 0.713726 0 0 0 0 0.580392 0 0 0 0.24 0"/>
<feBlend mode="normal" in2="BackgroundImageFix" result="effect1_dropShadow_516_3992"/>
<feBlend mode="normal" in="SourceGraphic" in2="effect1_dropShadow_516_3992" result="shape"/>
</filter>
<filter id="filter2_d_516_3992" x="95.8438" y="0" width="28" height="28" filterUnits="userSpaceOnUse" color-interpolation-filters="sRGB">
<feFlood flood-opacity="0" result="BackgroundImageFix"/>
<feColorMatrix in="SourceAlpha" type="matrix" values="0 0 0 0 0 0 0 0 0 0 0 0 0 0 0 0 0 0 127 0" result="hardAlpha"/>
<feOffset/>
<feGaussianBlur stdDeviation="6"/>
<feComposite in2="hardAlpha" operator="out"/>
<feColorMatrix type="matrix" values="0 0 0 0 0.0588235 0 0 0 0 0.713726 0 0 0 0 0.580392 0 0 0 0.24 0"/>
<feBlend mode="normal" in2="BackgroundImageFix" result="effect1_dropShadow_516_3992"/>
<feBlend mode="normal" in="SourceGraphic" in2="effect1_dropShadow_516_3992" result="shape"/>
</filter>
</defs>
</svg>
