<svg width="13" height="13" viewBox="0 0 13 13" fill="none" xmlns="http://www.w3.org/2000/svg">
<g clip-path="url(#clip0_516_1106)">
<path d="M6.68946 0.5C5.50277 0.5 4.34273 0.851894 3.35603 1.51118C2.36934 2.17047 1.6003 3.10754 1.14618 4.2039C0.692053 5.30026 0.573233 6.50666 0.804744 7.67054C1.03626 8.83443 1.6077 9.90353 2.44682 10.7426C3.28593 11.5818 4.35503 12.1532 5.51891 12.3847C6.6828 12.6162 7.8892 12.4974 8.98556 12.0433C10.0819 11.5892 11.019 10.8201 11.6783 9.83342C12.3376 8.84673 12.6895 7.68669 12.6895 6.5C12.6877 4.90923 12.055 3.38411 10.9302 2.25926C9.80535 1.13441 8.28023 0.501721 6.68946 0.5ZM6.68946 11.5C5.70055 11.5 4.73385 11.2068 3.9116 10.6573C3.08936 10.1079 2.4485 9.32705 2.07006 8.41342C1.69162 7.49979 1.5926 6.49445 1.78553 5.52455C1.97846 4.55464 2.45466 3.66373 3.15392 2.96447C3.85318 2.2652 4.7441 1.789 5.714 1.59607C6.68391 1.40315 7.68924 1.50216 8.60287 1.8806C9.5165 2.25904 10.2974 2.8999 10.8468 3.72215C11.3962 4.54439 11.6895 5.51109 11.6895 6.5C11.688 7.82564 11.1607 9.09656 10.2234 10.0339C9.28602 10.9713 8.01509 11.4985 6.68946 11.5Z" fill="white"/>
<path d="M6.68945 3C6.55684 3 6.42967 3.05268 6.3359 3.14645C6.24213 3.24021 6.18945 3.36739 6.18945 3.5V7.5C6.18945 7.63261 6.24213 7.75979 6.3359 7.85355C6.42967 7.94732 6.55684 8 6.68945 8C6.82206 8 6.94924 7.94732 7.04301 7.85355C7.13677 7.75979 7.18945 7.63261 7.18945 7.5V3.5C7.18945 3.36739 7.13677 3.24021 7.04301 3.14645C6.94924 3.05268 6.82206 3 6.68945 3Z" fill="white"/>
<path d="M7.18945 9.5C7.18945 9.22386 6.9656 9 6.68945 9C6.41331 9 6.18945 9.22386 6.18945 9.5C6.18945 9.77614 6.41331 10 6.68945 10C6.9656 10 7.18945 9.77614 7.18945 9.5Z" fill="white"/>
</g>
<defs>
<clipPath id="clip0_516_1106">
<rect width="12" height="12" fill="white" transform="translate(0.689453 0.5)"/>
</clipPath>
</defs>
</svg>
