<svg width="104" height="92" viewBox="0 0 104 92" fill="none" xmlns="http://www.w3.org/2000/svg">
<path d="M20 12L30.3923 26.4716H9.6077L20 12Z" fill="#4A4A4A"/>
<path d="M83.7798 12L94.1721 26.4716H73.3875L83.7798 12Z" fill="#4A4A4A"/>
<g filter="url(#filter0_d_300_2)">
<path d="M20.064 12H83.7798V30.7757C83.7798 46.6463 72.1475 60.119 56.4466 62.4335L51.9219 63.1005L47.3972 62.4335C31.6962 60.119 20.064 46.6463 20.064 30.7757V12Z" fill="#333333"/>
</g>
<path d="M20.564 12.5H83.2798V30.7757C83.2798 46.3983 71.8293 59.6606 56.3737 61.9389L51.9219 62.5952L47.4701 61.9389C32.0145 59.6606 20.564 46.3983 20.564 30.7757V12.5Z" stroke="url(#paint0_linear_300_2)"/>
<defs>
<filter id="filter0_d_300_2" x="0.0639648" y="0" width="103.716" height="91.1006" filterUnits="userSpaceOnUse" color-interpolation-filters="sRGB">
<feFlood flood-opacity="0" result="BackgroundImageFix"/>
<feColorMatrix in="SourceAlpha" type="matrix" values="0 0 0 0 0 0 0 0 0 0 0 0 0 0 0 0 0 0 127 0" result="hardAlpha"/>
<feOffset dy="8"/>
<feGaussianBlur stdDeviation="10"/>
<feComposite in2="hardAlpha" operator="out"/>
<feColorMatrix type="matrix" values="0 0 0 0 0 0 0 0 0 0 0 0 0 0 0 0 0 0 0.08 0"/>
<feBlend mode="normal" in2="BackgroundImageFix" result="effect1_dropShadow_300_2"/>
<feBlend mode="normal" in="SourceGraphic" in2="effect1_dropShadow_300_2" result="shape"/>
</filter>
<linearGradient id="paint0_linear_300_2" x1="51.9219" y1="45.049" x2="51.9219" y2="63.1006" gradientUnits="userSpaceOnUse">
<stop stop-color="#3A3A3A" stop-opacity="0"/>
<stop offset="1" stop-color="#B6B6B6"/>
</linearGradient>
</defs>
</svg>
