<svg width="24" height="25" viewBox="0 0 24 25" fill="none" xmlns="http://www.w3.org/2000/svg">
<g clip-path="url(#clip0_6_441)">
<path d="M18.581 2.41417L12.316 0.325167C12.1109 0.256846 11.8891 0.256846 11.684 0.325167L5.419 2.41417C4.42291 2.74505 3.55642 3.38142 2.94265 4.23288C2.32887 5.08433 1.99904 6.10755 2 7.15717V12.2742C2 19.8372 11.2 24.0142 11.594 24.1882C11.7218 24.245 11.8601 24.2743 12 24.2743C12.1399 24.2743 12.2782 24.245 12.406 24.1882C12.8 24.0142 22 19.8372 22 12.2742V7.15717C22.001 6.10755 21.6711 5.08433 21.0574 4.23288C20.4436 3.38142 19.5771 2.74505 18.581 2.41417ZM20 12.2742C20 17.7292 13.681 21.3072 12 22.1632C10.317 21.3102 4 17.7432 4 12.2742V7.15717C4.00006 6.52744 4.19828 5.91371 4.56657 5.40291C4.93486 4.89211 5.45455 4.51016 6.052 4.31117L12 2.32817L17.948 4.31117C18.5455 4.51016 19.0651 4.89211 19.4334 5.40291C19.8017 5.91371 19.9999 6.52744 20 7.15717V12.2742Z" fill="#363636"/>
<path d="M15.3 8.57425L11.112 12.7742L8.86804 10.4342C8.77798 10.3358 8.66913 10.2563 8.5479 10.2006C8.42666 10.1448 8.2955 10.1139 8.16213 10.1097C8.02877 10.1054 7.89589 10.1279 7.77134 10.1757C7.64679 10.2236 7.53308 10.2959 7.43691 10.3884C7.34074 10.4809 7.26405 10.5917 7.21137 10.7143C7.15869 10.8369 7.13107 10.9688 7.13015 11.1022C7.12923 11.2357 7.15502 11.3679 7.20601 11.4913C7.257 11.6146 7.33215 11.7264 7.42704 11.8202L9.73304 14.2202C9.90501 14.406 10.1129 14.5549 10.3441 14.6581C10.5752 14.7612 10.8249 14.8164 11.078 14.8202H11.111C11.3591 14.8211 11.6048 14.7726 11.834 14.6777C12.0632 14.5827 12.2712 14.4432 12.446 14.2672L16.718 9.99524C16.8113 9.90214 16.8854 9.79156 16.936 9.66984C16.9865 9.54811 17.0126 9.41762 17.0128 9.28581C17.0129 9.15399 16.9871 9.02344 16.9368 8.90161C16.8865 8.77978 16.8126 8.66905 16.7195 8.57575C16.6264 8.48244 16.5159 8.40839 16.3941 8.35782C16.2724 8.30725 16.1419 8.28115 16.0101 8.28101C15.8783 8.28087 15.7477 8.30669 15.6259 8.35701C15.5041 8.40732 15.3933 8.48114 15.3 8.57425Z" fill="#363636"/>
</g>
<defs>
<clipPath id="clip0_6_441">
<rect width="24" height="24" fill="white" transform="translate(0 0.27417)"/>
</clipPath>
</defs>
</svg>
