<svg width="16" height="17" viewBox="0 0 16 17" fill="none" xmlns="http://www.w3.org/2000/svg">
<g clip-path="url(#clip0_125_1232)">
<path d="M0.386403 11.0729L2.5804 8.87888C2.64155 8.81376 2.71517 8.7616 2.79687 8.72548C2.87858 8.68937 2.96671 8.67005 3.05603 8.66866C3.14535 8.66727 3.23403 8.68385 3.31682 8.71741C3.39961 8.75097 3.47481 8.80082 3.53795 8.86401C3.6011 8.9272 3.6509 9.00243 3.68439 9.08524C3.71789 9.16805 3.73441 9.25675 3.73296 9.34607C3.73151 9.43539 3.71212 9.5235 3.67595 9.60518C3.63978 9.68686 3.58757 9.76044 3.5224 9.82155L1.99574 11.3509C2.82565 11.3528 3.64755 11.1886 4.41305 10.868C5.17855 10.5474 5.87217 10.0769 6.45307 9.48421C6.51758 9.42481 6.59336 9.37897 6.67592 9.34941C6.75848 9.31986 6.84614 9.30719 6.93369 9.31217C7.02124 9.31714 7.1069 9.33966 7.18559 9.37837C7.26427 9.41709 7.33437 9.47122 7.39174 9.53755L7.4004 9.55088C7.51249 9.68126 7.56986 9.84991 7.56054 10.0216C7.55123 10.1933 7.47594 10.3547 7.3504 10.4722C6.65054 11.18 5.81596 11.7404 4.89593 12.1203C3.97591 12.5002 2.98909 12.692 1.99374 12.6842L3.5224 14.2129C3.59206 14.2728 3.64858 14.3465 3.68842 14.4293C3.72825 14.512 3.75055 14.6022 3.7539 14.694C3.75725 14.7858 3.74158 14.8773 3.70788 14.9628C3.67418 15.0483 3.62318 15.1259 3.55807 15.1907C3.49297 15.2555 3.41516 15.3062 3.32954 15.3395C3.24392 15.3729 3.15234 15.3882 3.06054 15.3844C2.96873 15.3807 2.87869 15.358 2.79607 15.3178C2.71344 15.2776 2.64002 15.2208 2.5804 15.1509L0.386403 12.9569C0.136849 12.7069 -0.00331259 12.3681 -0.00331259 12.0149C-0.00331259 11.6617 0.136849 11.3229 0.386403 11.0729Z" fill="white"/>
<path d="M1.99543 4.68426L3.52209 6.21093C3.53509 6.22847 3.54711 6.24672 3.55809 6.26559C3.66567 6.39676 3.71874 6.56425 3.70631 6.73344C3.69388 6.90263 3.61691 7.06057 3.49131 7.1746C3.36572 7.28864 3.2011 7.35005 3.03151 7.34614C2.86191 7.34223 2.7003 7.2733 2.58009 7.15359L1.44276 6.01759L0.385427 4.96093C0.206664 4.78076 0.0830364 4.55332 0.029068 4.30533C-0.0249004 4.05733 -0.00696754 3.79908 0.080761 3.56093C0.14553 3.37862 0.249795 3.21289 0.386094 3.07559L2.58009 0.884259C2.64096 0.818132 2.71456 0.764994 2.79648 0.728038C2.87841 0.691082 2.96696 0.671072 3.05681 0.66921C3.14666 0.667349 3.23596 0.683674 3.31935 0.717205C3.40273 0.750736 3.47847 0.80078 3.54202 0.86433C3.60557 0.927879 3.65562 1.00362 3.68915 1.087C3.72268 1.17039 3.739 1.25969 3.73714 1.34954C3.73528 1.4394 3.71527 1.52795 3.67832 1.60987C3.64136 1.69179 3.58822 1.7654 3.52209 1.82626L1.99343 3.35426C5.28209 3.36226 7.08476 5.13693 8.71943 7.00359C10.2208 5.30893 12.0001 3.61759 15.0088 3.38159L15.3294 3.35093C15.5062 3.35093 15.6758 3.42116 15.8008 3.54619C15.9259 3.67121 15.9961 3.84078 15.9961 4.01759C15.9927 4.19333 15.9213 4.36093 15.7971 4.48522C15.6728 4.60951 15.5052 4.68085 15.3294 4.68426C15.2814 4.68426 15.1381 4.70626 15.1381 4.70626C12.5408 4.90293 11.0501 6.36559 9.60009 8.01759C11.0414 9.66159 12.5221 11.1509 15.0981 11.3243L15.3648 11.3383C15.5402 11.3492 15.7042 11.4294 15.8205 11.5613C15.9369 11.6931 15.9961 11.8658 15.9851 12.0413C15.9741 12.2167 15.8939 12.3807 15.7621 12.497C15.6302 12.6134 15.4576 12.6726 15.2821 12.6616C15.1781 12.6569 15.0088 12.6529 14.9254 12.6463C11.5788 12.3883 9.76343 10.2463 8.14476 8.37359C6.51009 6.48426 4.96609 4.69626 1.99543 4.68426Z" fill="white"/>
</g>
<defs>
<clipPath id="clip0_125_1232">
<rect width="16" height="16" fill="white" transform="matrix(-1 0 0 1 16 0.0175781)"/>
</clipPath>
</defs>
</svg>
