<svg width="16" height="17" viewBox="0 0 16 17" fill="none" xmlns="http://www.w3.org/2000/svg">
<g clip-path="url(#clip0_101_1373)">
<path d="M8 0.557617C6.41775 0.557617 4.87104 1.02681 3.55544 1.90586C2.23985 2.78491 1.21447 4.03434 0.608967 5.49615C0.00346629 6.95796 -0.15496 8.56649 0.153721 10.1183C0.462403 11.6702 1.22433 13.0957 2.34315 14.2145C3.46197 15.3333 4.88743 16.0952 6.43928 16.4039C7.99113 16.7126 9.59966 16.5542 11.0615 15.9487C12.5233 15.3432 13.7727 14.3178 14.6518 13.0022C15.5308 11.6866 16 10.1399 16 8.55762C15.9977 6.43659 15.1541 4.40309 13.6543 2.9033C12.1545 1.4035 10.121 0.559911 8 0.557617ZM8 15.2243C6.68146 15.2243 5.39253 14.8333 4.2962 14.1007C3.19987 13.3682 2.34539 12.327 1.84081 11.1088C1.33622 9.89067 1.2042 8.55022 1.46144 7.25702C1.71867 5.96381 2.35361 4.77592 3.28596 3.84357C4.21831 2.91122 5.4062 2.27628 6.6994 2.01905C7.99261 1.76181 9.33305 1.89384 10.5512 2.39842C11.7694 2.903 12.8106 3.75749 13.5431 4.85382C14.2757 5.95014 14.6667 7.23908 14.6667 8.55762C14.6647 10.3251 13.9617 12.0197 12.7119 13.2695C11.4621 14.5193 9.76752 15.2223 8 15.2243Z" fill="white"/>
<path d="M8.00013 4.55762C7.82332 4.55762 7.65375 4.62786 7.52872 4.75288C7.4037 4.8779 7.33346 5.04747 7.33346 5.22428V8.10762L5.08613 9.51562C4.93584 9.6095 4.829 9.75925 4.78912 9.93191C4.74923 10.1046 4.77957 10.286 4.87346 10.4363C4.96735 10.5866 5.11709 10.6934 5.28975 10.7333C5.46241 10.7732 5.64384 10.7428 5.79413 10.649L8.35413 9.04895C8.45085 8.98835 8.5304 8.90393 8.58514 8.80377C8.63989 8.70362 8.668 8.59108 8.66679 8.47695V5.22428C8.66679 5.04747 8.59656 4.8779 8.47153 4.75288C8.34651 4.62786 8.17694 4.55762 8.00013 4.55762Z" fill="white"/>
</g>
<defs>
<clipPath id="clip0_101_1373">
<rect width="16" height="16" fill="white" transform="translate(0 0.557617)"/>
</clipPath>
</defs>
</svg>
