<svg width="24" height="25" viewBox="0 0 24 25" fill="none" xmlns="http://www.w3.org/2000/svg">
<path d="M14.6 21.5718C14.3 21.7978 13.981 22.0358 13.71 22.2718H16C16.2653 22.2718 16.5196 22.3771 16.7072 22.5647C16.8947 22.7522 17 23.0066 17 23.2718C17 23.537 16.8947 23.7913 16.7072 23.9789C16.5196 24.1664 16.2653 24.2718 16 24.2718H12C11.7348 24.2718 11.4805 24.1664 11.2929 23.9789C11.1054 23.7913 11 23.537 11 23.2718C11 21.7718 12.275 20.8158 13.4 19.9718C14.15 19.4098 15 18.7718 15 18.2718C15 18.0066 14.8947 17.7522 14.7072 17.5647C14.5196 17.3771 14.2653 17.2718 14 17.2718C13.7348 17.2718 13.4805 17.3771 13.2929 17.5647C13.1054 17.7522 13 18.0066 13 18.2718C13 18.537 12.8947 18.7913 12.7072 18.9789C12.5196 19.1664 12.2653 19.2718 12 19.2718C11.7348 19.2718 11.4805 19.1664 11.2929 18.9789C11.1054 18.7913 11 18.537 11 18.2718C11 17.4761 11.3161 16.7131 11.8787 16.1505C12.4413 15.5878 13.2044 15.2718 14 15.2718C14.7957 15.2718 15.5588 15.5878 16.1214 16.1505C16.684 16.7131 17 17.4761 17 18.2718C17 19.7718 15.725 20.7278 14.6 21.5718ZM23 15.2718C22.7348 15.2718 22.4805 15.3771 22.2929 15.5647C22.1054 15.7522 22 16.0066 22 16.2718V19.2718H21C20.7348 19.2718 20.4805 19.1664 20.2929 18.9789C20.1054 18.7913 20 18.537 20 18.2718V16.2718C20 16.0066 19.8947 15.7522 19.7072 15.5647C19.5196 15.3771 19.2653 15.2718 19 15.2718C18.7348 15.2718 18.4805 15.3771 18.2929 15.5647C18.1054 15.7522 18 16.0066 18 16.2718V18.2718C18 19.0674 18.3161 19.8305 18.8787 20.3931C19.4413 20.9557 20.2044 21.2718 21 21.2718H22V23.2718C22 23.537 22.1054 23.7913 22.2929 23.9789C22.4805 24.1664 22.7348 24.2718 23 24.2718C23.2653 24.2718 23.5196 24.1664 23.7072 23.9789C23.8947 23.7913 24 23.537 24 23.2718V16.2718C24 16.0066 23.8947 15.7522 23.7072 15.5647C23.5196 15.3771 23.2653 15.2718 23 15.2718ZM13 12.2718V7.27178C13 7.00656 12.8947 6.75221 12.7072 6.56467C12.5196 6.37713 12.2653 6.27178 12 6.27178C11.7348 6.27178 11.4805 6.37713 11.2929 6.56467C11.1054 6.75221 11 7.00656 11 7.27178V11.2718H8.00005C7.73483 11.2718 7.48048 11.3771 7.29294 11.5647C7.1054 11.7522 7.00005 12.0066 7.00005 12.2718C7.00005 12.537 7.1054 12.7913 7.29294 12.9789C7.48048 13.1664 7.73483 13.2718 8.00005 13.2718H12C12.2653 13.2718 12.5196 13.1664 12.7072 12.9789C12.8947 12.7913 13 12.537 13 12.2718ZM23 2.27178C22.7348 2.27178 22.4805 2.37713 22.2929 2.56467C22.1054 2.75221 22 3.00656 22 3.27178V5.64578C20.9581 4.07335 19.5602 2.7687 17.9196 1.83768C16.2791 0.906662 14.4422 0.375502 12.558 0.287298C10.6737 0.199093 8.79521 0.55633 7.07488 1.33002C5.35454 2.10371 3.84083 3.27207 2.65656 4.74028C1.4723 6.2085 0.650831 7.93522 0.25882 9.78034C-0.133191 11.6255 -0.0847046 13.537 0.400345 15.3599C0.885395 17.1828 1.79334 18.8656 3.05052 20.2719C4.3077 21.6782 5.8787 22.7683 7.63605 23.4538C7.75218 23.4986 7.87557 23.5216 8.00005 23.5218C8.23341 23.5221 8.45954 23.4409 8.6393 23.2921C8.81905 23.1432 8.9411 22.9363 8.9843 22.7069C9.02751 22.4776 8.98915 22.2404 8.87588 22.0364C8.7626 21.8323 8.58154 21.6744 8.36405 21.5898C6.87207 21.0129 5.54027 20.0864 4.48043 18.8883C3.42059 17.6901 2.66366 16.2552 2.27316 14.704C1.88265 13.1527 1.86999 11.5305 2.23622 9.97332C2.60245 8.41617 3.33689 6.96961 4.37789 5.75505C5.41889 4.54049 6.73607 3.59339 8.21886 2.99325C9.70164 2.39311 11.3068 2.15744 12.8995 2.30602C14.4922 2.45461 16.026 2.98311 17.3722 3.84717C18.7184 4.71123 19.8377 5.88563 20.636 7.27178H18C17.7348 7.27178 17.4805 7.37713 17.2929 7.56467C17.1054 7.75221 17 8.00656 17 8.27178C17 8.53699 17.1054 8.79135 17.2929 8.97888C17.4805 9.16642 17.7348 9.27178 18 9.27178H21C21.7957 9.27178 22.5588 8.95571 23.1214 8.3931C23.684 7.83049 24 7.06743 24 6.27178V3.27178C24 3.00656 23.8947 2.75221 23.7072 2.56467C23.5196 2.37713 23.2653 2.27178 23 2.27178Z" fill="white"/>
</svg>
