<svg width="127" height="46" viewBox="0 0 127 46" fill="none" xmlns="http://www.w3.org/2000/svg">
<path d="M0.339372 33.2244C-0.0752355 33.5892 -0.115568 34.2211 0.249286 34.6357C0.614141 35.0503 1.24602 35.0907 1.66063 34.7258L0.339372 33.2244ZM126.998 2.0388C127.033 1.48763 126.615 1.01231 126.064 0.977129L117.082 0.403827C116.531 0.368647 116.055 0.786933 116.02 1.3381C115.985 1.88926 116.403 2.36458 116.955 2.39977L124.938 2.90937L124.429 10.8931C124.394 11.4443 124.812 11.9196 125.363 11.9548C125.914 11.99 126.389 11.5717 126.425 11.0205L126.998 2.0388ZM106.497 16.8124L105.836 17.5631L106.497 16.8124ZM109.139 16.8124L109.8 17.5631L109.139 16.8124ZM97.9742 11.6378L97.3136 10.8871L97.9742 11.6378ZM100.617 11.6378L101.277 10.8871L100.617 11.6378ZM81.4969 23.8124L80.8363 24.5631L81.4969 23.8124ZM84.1394 23.8124L84.8001 24.5631L84.1394 23.8124ZM68.4287 14.6378L67.7681 13.8871L68.4287 14.6378ZM71.0713 14.6378L71.7319 13.8871L71.0713 14.6378ZM45.1333 32.8124L45.7939 32.0617L45.1333 32.8124ZM47.7758 32.8124L47.1152 32.0617L47.7758 32.8124ZM37.5485 26.1378L36.8879 26.8885L37.5485 26.1378ZM25.0485 34.8124L25.7092 35.5631L25.0485 34.8124ZM9.90602 26.1378L9.24539 25.3871L9.90602 26.1378ZM12.5485 26.1378L13.2092 25.3871L12.5485 26.1378ZM1.66063 34.7258L10.5666 26.8885L9.24539 25.3871L0.339372 33.2244L1.66063 34.7258ZM11.8879 26.8885L21.7454 35.5631L23.0666 34.0617L13.2092 25.3871L11.8879 26.8885ZM25.7092 35.5631L35.5666 26.8885L34.2454 25.3871L24.3879 34.0617L25.7092 35.5631ZM36.8879 26.8885L44.4727 33.5631L45.7939 32.0617L38.2092 25.3871L36.8879 26.8885ZM48.4364 33.5631L69.0894 15.3885L67.7681 13.8871L47.1152 32.0617L48.4364 33.5631ZM70.4106 15.3885L80.8363 24.5631L82.1575 23.0617L71.7319 13.8871L70.4106 15.3885ZM84.8001 24.5631L98.6348 12.3885L97.3136 10.8871L83.4788 23.0617L84.8001 24.5631ZM99.9561 12.3885L105.836 17.5631L107.158 16.0617L101.277 10.8871L99.9561 12.3885ZM109.8 17.5631L126.661 2.72581L125.339 1.22438L108.479 16.0617L109.8 17.5631ZM105.836 17.5631C106.969 18.5603 108.667 18.5603 109.8 17.5631L108.479 16.0617C108.101 16.3941 107.535 16.3941 107.158 16.0617L105.836 17.5631ZM98.6348 12.3885C99.0125 12.0561 99.5784 12.0561 99.9561 12.3885L101.277 10.8871C100.144 9.88994 98.4467 9.88995 97.3136 10.8871L98.6348 12.3885ZM80.8363 24.5631C81.9694 25.5602 83.6669 25.5603 84.8001 24.5631L83.4788 23.0617C83.1011 23.3941 82.5353 23.3941 82.1575 23.0617L80.8363 24.5631ZM69.0894 15.3885C69.4671 15.0561 70.0329 15.0561 70.4106 15.3885L71.7319 13.8871C70.5988 12.8899 68.9012 12.8899 67.7681 13.8871L69.0894 15.3885ZM44.4727 33.5631C45.6058 34.5603 47.3033 34.5603 48.4364 33.5631L47.1152 32.0617C46.7375 32.3941 46.1716 32.3941 45.7939 32.0617L44.4727 33.5631ZM35.5666 26.8885C35.9444 26.5561 36.5102 26.5561 36.8879 26.8885L38.2092 25.3871C37.076 24.3899 35.3785 24.3899 34.2454 25.3871L35.5666 26.8885ZM21.7454 35.5631C22.8785 36.5602 24.576 36.5603 25.7092 35.5631L24.3879 34.0617C24.0102 34.3941 23.4444 34.3941 23.0666 34.0617L21.7454 35.5631ZM10.5666 26.8885C10.9444 26.5561 11.5102 26.5561 11.8879 26.8885L13.2092 25.3871C12.076 24.3899 10.3785 24.3899 9.24539 25.3871L10.5666 26.8885Z" fill="#0FB694"/>
<path d="M9.90602 26.1378L1.67874 33.3778C1.24727 33.7575 1 34.3045 1 34.8792V43.9751C1 45.0797 1.89543 45.9751 3 45.9751H124C125.105 45.9751 126 45.0797 126 43.9751V6.39923C126 4.67825 123.971 3.76088 122.679 4.89781L109.139 16.8124C108.384 17.4772 107.252 17.4772 106.497 16.8124L100.617 11.6378C99.8613 10.973 98.7296 10.973 97.9742 11.6378L84.1394 23.8124C83.384 24.4772 82.2523 24.4772 81.4969 23.8124L71.0713 14.6378C70.3158 13.973 69.1842 13.973 68.4287 14.6378L47.7758 32.8124C47.0204 33.4772 45.8887 33.4772 45.1333 32.8124L37.5485 26.1378C36.7931 25.473 35.6614 25.473 34.906 26.1378L25.0485 34.8124C24.2931 35.4772 23.1614 35.4772 22.406 34.8124L12.5485 26.1378C11.7931 25.473 10.6614 25.473 9.90602 26.1378Z" fill="url(#paint0_linear_9_2952)"/>
<defs>
<linearGradient id="paint0_linear_9_2952" x1="63.5" y1="1.9751" x2="63.5" y2="45.9751" gradientUnits="userSpaceOnUse">
<stop stop-color="#0FB694" stop-opacity="0.53"/>
<stop offset="1" stop-color="#0FB694" stop-opacity="0"/>
</linearGradient>
</defs>
</svg>
