<svg xmlns="http://www.w3.org/2000/svg" xmlns:xlink="http://www.w3.org/1999/xlink" version="1.1" x="0px" y="0px" viewBox="0 0 100 125" style="enable-background:new 0 0 100 100;" xml:space="preserve"><g><path d="M57.7,34c0,1.2,1,2.2,2.2,2.2h10.7c1.2,0,2.2-1,2.2-2.2c0-1.2-1-2.2-2.2-2.2H59.9C58.7,31.8,57.7,32.8,57.7,34z"/><path d="M46.2,22.5c1.2,0,2.2-1,2.2-2.2V9.6c0-1.2-1-2.2-2.2-2.2c-1.2,0-2.2,1-2.2,2.2v10.7C44,21.5,45,22.5,46.2,22.5z"/><path d="M35,25.8c0.4,0.4,1,0.6,1.5,0.6c0.6,0,1.1-0.2,1.5-0.6c0.8-0.8,0.8-2.2,0-3.1l-7.5-7.5c-0.8-0.8-2.2-0.8-3.1,0   c-0.8,0.8-0.8,2.2,0,3.1L35,25.8z"/><path d="M55.9,26.5c0.6,0,1.1-0.2,1.5-0.6l7.5-7.5c0.8-0.8,0.8-2.2,0-3.1c-0.8-0.8-2.2-0.8-3.1,0l-7.5,7.5c-0.8,0.8-0.8,2.2,0,3.1   C54.8,26.3,55.3,26.5,55.9,26.5z"/><path d="M34.7,34c0-1.2-1-2.2-2.2-2.2H21.8c-1.2,0-2.2,1-2.2,2.2c0,1.2,1,2.2,2.2,2.2h10.7C33.7,36.2,34.7,35.2,34.7,34z"/><path d="M73.6,51.7c-0.9,0-1.8,0.2-2.6,0.5c-0.7-2.9-3.4-5.1-6.5-5.1c-1.3,0-2.4,0.4-3.5,1c-1.2-1.9-3.3-3.1-5.7-3.1   c-0.8,0-1.7,0.2-2.4,0.4V34c0-3.7-3-6.7-6.7-6.7c-3.7,0-6.7,3-6.7,6.7v24.9c-2.9,0.4-5.1,1.6-6.8,3.7c-1.1,1.4-2.7,4.5-1.6,10   c0.9,4.2,3.7,9.5,7.6,14.1c4.6,5.5,10.7,5.7,14.3,5.7c0.2,0,0.4,0,0.6,0l9.5,0c10.8,0,17.3-8.8,17.3-17.3V58.5   C80.3,54.7,77.3,51.7,73.6,51.7z M76,75.2c0,5.4-4,13-13,13h-9l-0.5,0c-3.2,0-8.1,0-11.6-4.2c-3.4-4.1-5.9-8.7-6.7-12.3   c-0.8-3.9,0.3-5.8,0.8-6.4c0.8-1,1.7-1.7,3.4-2v4c0,1.2,1,2.2,2.2,2.2c1.2,0,2.2-1,2.2-2.2V34c0-1.3,1.1-2.4,2.4-2.4   c1.3,0,2.4,1.1,2.4,2.4v23.2c0,1.2,1,2.2,2.2,2.2c1.2,0,2.2-1,2.2-2.2v-5.4c0-1.3,1.1-2.4,2.4-2.4c1.3,0,2.4,1.1,2.4,2.4V59   c0,1.2,1,2.2,2.2,2.2c1.2,0,2.2-1,2.2-2.2v-5.1c0-1.3,1.1-2.4,2.4-2.4c1.3,0,2.4,1.1,2.4,2.4v6.9c0,1.2,1,2.2,2.2,2.2   c1.2,0,2.2-1,2.2-2.2v-2.4c0-1.3,1.1-2.4,2.4-2.4c1.3,0,2.4,1.1,2.4,2.4V75.2z"/></g><text x="0" y="115" fill="#000000" font-size="5px" font-weight="bold" font-family="'Helvetica Neue', Helvetica, Arial-Unicode, Arial, Sans-serif">Created by Miyang Park</text><text x="0" y="120" fill="#000000" font-size="5px" font-weight="bold" font-family="'Helvetica Neue', Helvetica, Arial-Unicode, Arial, Sans-serif">from the Noun Project</text></svg>